<?xml version="1.0" encoding="UTF-8"?>
<svg id="SVGRoot" width="500" height="148.57" version="1.1" viewBox="0 0 500 148.56987" xmlns="http://www.w3.org/2000/svg" xmlns:cc="http://creativecommons.org/ns#" xmlns:dc="http://purl.org/dc/elements/1.1/" xmlns:rdf="http://www.w3.org/1999/02/22-rdf-syntax-ns#"><metadata><rdf:RDF><cc:Work rdf:about=""><dc:format>image/svg+xml</dc:format><dc:type rdf:resource="http://purl.org/dc/dcmitype/StillImage"/><dc:title/></cc:Work></rdf:RDF></metadata><path d="m274.24 50.09 22.595-22.496c1.3-1.2995 1.3-3.3994 0-4.6989l-22.895-22.895c-0.10012-0.0996-2.6996 13.697-2.6996 13.697l10.198 16.097z" fill="#71777a"/><path d="m155.96 115.48c-0.19973-0.29985-0.59969-0.39996-0.99966-0.29985-0.29984 0.0996-0.59969 0.49958-0.59969 0.79942v30.694c0 0.49957 0.39997 0.89953 0.89954 0.89953h6.1987c0.50008 0 0.90004-0.39996 0.90004-0.89953v-23.495c0-1.0002 0.10012-1.5998-0.50008-2.2997z" fill="#71777a"/><g fill="#e40520"><path d="m215.05 62.29c-0.19973-0.30035-0.59969-0.39996-0.99966-0.30035-0.29985 0.10012-0.5997 0.50008-0.5997 0.79992v30.694c0 0.49957 0.39998 0.89954 0.89955 0.89954h6.1987c0.50009 0 0.90005-0.39997 0.90005-0.89954v-23.295c0-0.99965 0.10012-1.5998-0.50008-2.2997z"/><path d="m16.19 61.89c-9.6977 0-16.197 6.7984-16.197 16.597 0 10.098 6.0991 16.596 16.297 16.596 3.3994 0 7.7985-0.6998 10.998-2.0994 0.79992-0.29985 0.99965-0.69981 0.99965-1.0998 0-0.19973-0.0996-0.50008-0.0996-0.79993l-0.90004-3.2993c-0.10012-0.49957-0.50009-0.79992-0.90005-0.79992-0.29984 0-0.49957 0.10012-0.69981 0.20023-2.3993 0.89954-5.2986 1.5994-7.9982 1.5994-5.199 0-8.7982-3.499-9.2978-8.4978h19.096c1.5999 0 2.1996-0.30036 2.1996-1.8997v-0.99966c0-4.3991-0.79942-8.4983-3.899-11.698-2.2997-2.2992-5.599-3.7989-9.5981-3.7989zm5.599 13.297h-13.297c0.50009-3.7994 3.0996-7.1988 7.2984-7.1988 3.9991 0 5.8988 3.0996 6.0991 6.4985v0.70032z"/><path d="m46.99 79.79h7.4987v4.4992c-0.99965 1.9993-3.6993 4.0992-6.8985 4.3991-2.6996 0.29984-5.6991-0.69981-6.499-2.8994-1.2995-3.4996 1.4001-5.999 5.8988-5.999zm-1.2995-5.4988c-8.1985 0-10.698 4.3991-11.398 7.4987-1.5998 6.7984 2.3993 13.297 11.597 13.297 3.5997 0 7.7985-2.1995 9.498-4.5988h0.10011c0.50009 2.1995 1.9998 3.899 5.2991 3.899h3.0991c0.79992 0 1.3-0.49958 1.3-1.1999v-3.0991c0-0.79993-0.39996-1.0998-1.1999-1.0998h-0.50008c-0.29984 0-0.59969-0.10011-0.79942-0.29984-0.30035-0.29985-0.39996-1.0002-0.39996-1.8997v-10.498c0-13.198-11.998-14.697-15.797-14.397-4.2995 0.39996-7.5988 2.0994-9.3984 3.0991-0.49958 0.29984-0.69981 1.0002-0.39997 1.7 0.39997 0.99965 1.1999 2.3993 1.7 3.3989 0.29985 0.6002 0.89954 0.6002 1.3996 0.39997 1.9998-0.79993 4.5988-2.2992 8.1985-2.0994 4.3991 0.10012 6.5986 3.0996 6.3984 5.8988h-8.6981z"/><path d="m86.88 76.69-5.8988-2.3993c-2.4994-0.99966-3.1997-1.8997-3.1997-3.2993 0-1.4997 1.4001-2.9995 4.0992-2.9995 2.0999 0 4.8992 0.69981 6.9986 1.5998 0.20023 0.0996 0.50008 0.0996 0.69981 0.0996 0.50008 0 0.79992-0.29984 0.90004-0.69981l1.0998-3.499c0.10012-0.29985 0.10012-0.50008 0.10012-0.69981 0-0.39996-0.30035-0.69981-0.79993-0.90004-3.2993-1.3996-6.2988-1.9993-9.498-1.9993-5.7992 0-11.798 2.8994-11.798 9.2978 0 4.3991 2.9995 7.299 6.6988 8.6986l5.1985 1.9993c2.6996 1.0002 3.8995 1.9998 3.8995 3.8995 0 2.1995-1.9998 3.499-4.799 3.499-2.2997 0-5.2991-0.89954-8.1985-1.9993-0.29985-0.10012-0.49958-0.10012-0.69981-0.10012-0.39997 0-0.69981 0.29985-0.89954 0.89954l-1.0002 3.2993c-0.0996 0.20023-0.0996 0.39996-0.0996 0.60019 0 0.39997 0.19973 0.79993 0.79942 0.99966 2.8994 1.2995 6.5986 2.2997 9.9981 2.2997 6.6988 0 12.598-3.2993 12.598-10.098 0-4.3991-2.6996-7.0982-6.1987-8.4983z"/><path d="m118.47 88.69c-0.10012-0.50008-0.39996-0.79993-0.79993-0.79993-0.20023 0-0.39996 0.10012-0.6998 0.10012-1.1999 0.39996-2.4999 0.79942-4.1994 0.79942-1.5998 0-2.4994-0.49957-3.0991-1.3996-0.70031-0.99965-0.79992-2.4994-0.79992-4.3991v-14.897h7.2984c0.79993 0 1.2995-0.50008 1.2995-1.1999v-3.0991c0-0.90005-0.49957-1.0998-1.1994-1.0998h-7.3986v-7.5988c0-0.99965-0.39998-1.3996-1.1999-1.3996h-5.199c-0.99966 0-1.4997 0.50008-1.4997 1.5999v7.4982h-3.2993c-0.79992 0-1.1999 0.50009-1.1999 1.3v2.4994c0 1.3996 0.20024 1.5998 1.4001 1.5998h3.0991v14.497c0 4.799 0.10012 7.3986 2.0994 9.6982 1.5999 1.8992 4.4992 2.6991 7.7985 2.6991 2.5995 0 5.2991-0.6998 7.2984-1.4997 0.69981-0.29985 1.0002-0.59969 1.0002-1.1994 0-0.10012 0-0.20024-0.10012-0.39997z"/></g><path d="m319.43 142.07c-0.10012-0.49957-0.39997-0.79992-0.79994-0.79992-0.19973 0-0.39996 0.10012-0.69981 0.10012-1.1999 0.39996-2.4994 0.79992-4.1994 0.79992-1.5993 0-2.4994-0.50008-3.0991-1.3996-0.69981-1.0002-0.79993-2.4994-0.79993-4.3991v-14.897h7.2984c0.79992 0 1.3-0.49957 1.3-1.1994v-3.0996c0-0.79993-0.50008-1.0998-1.1999-1.0998h-7.3986v-7.5983c0-0.99965-0.39996-1.3996-1.1999-1.3996h-5.1985c-1.0002 0-1.4997 0.49957-1.4997 1.5993v7.4987h-3.2993c-0.79994 0-1.1999 0.49957-1.1999 1.2995v2.4994c0 1.4001 0.19973 1.5998 1.3996 1.5998h3.0996v14.497c0 4.7986 0.0996 7.398 2.0994 9.6977 1.5998 1.8997 4.4992 2.6996 7.7985 2.6996 2.5995 0 5.2986-0.69981 7.2984-1.4997 0.69981-0.29984 0.99966-0.59969 0.99966-1.1999 0-0.10011 0-0.19972-0.10012-0.39996z" fill="#71777a"/><path d="m471.5 142.07c-0.0996-0.49957-0.39946-0.79992-0.79942-0.79992-0.20024 0-0.39997 0.10012-0.6002 0.10012-1.1994 0.39996-2.4994 0.79992-4.1988 0.79992-1.5999 0-2.4994-0.50008-3.0996-1.3996-0.69981-1.0002-0.79993-2.4994-0.79993-4.3991v-14.897h7.2984c0.79993 0 1.3-0.49957 1.3-1.1994v-3.0996c0-0.79993-0.50008-1.0998-1.1999-1.0998h-7.3986v-7.5983c0-0.99965-0.39996-1.3996-1.1994-1.3996h-5.199c-0.99966 0-1.4997 0.49957-1.4997 1.5993v7.4987h-3.2993c-0.79992 0-1.1999 0.49957-1.1999 1.2995v2.4994c0 1.4001 0.20024 1.5998 1.3996 1.5998h3.0996v14.497c0 4.7986 0.10012 7.398 2.0994 9.6977 1.5998 1.8997 4.4992 2.6996 7.7985 2.6996 2.5995 0 5.2991-0.69981 7.2984-1.4997 0.69981-0.29984 0.99965-0.59969 0.99965-1.1999 0-0.10011 0-0.19972-0.0996-0.39996l-0.69981-3.2993z" fill="#71777a"/><g fill="#e40520"><path d="m141.57 76.69-5.8988-2.3993c-2.4999-0.99966-3.1997-1.8997-3.1997-3.2993 0-1.4997 1.4001-2.9995 4.0992-2.9995 2.0994 0 4.8992 0.69981 6.9986 1.5998 0.20025 0.0996 0.50009 0.0996 0.69982 0.0996 0.50008 0 0.79993-0.29984 0.90004-0.69981l1.0998-3.499c0.10011-0.29985 0.10011-0.50008 0.10011-0.69981 0-0.39996-0.30035-0.69981-0.79992-0.90004-3.2993-1.3996-6.2988-1.9993-9.498-1.9993-5.7992 0-11.798 2.8994-11.798 9.2978 0 4.3991 2.9995 7.299 6.6982 8.6986l5.199 1.9993c2.6996 1.0002 3.8995 1.9998 3.8995 3.8995 0 2.1995-1.9998 3.499-4.799 3.499-2.2997 0-5.2991-0.89954-8.1985-1.9993-0.29985-0.10012-0.50008-0.10012-0.69981-0.10012-0.39996 0-0.69981 0.29985-0.90004 0.89954l-0.99966 3.2993c-0.10011 0.20023-0.10011 0.39996-0.10011 0.60019 0 0.39997 0.20023 0.79993 0.79992 0.99966 2.8994 1.2995 6.6988 2.2997 9.9981 2.2997 6.6988 0 12.598-3.2993 12.598-10.098 0-4.3991-2.6996-7.0982-6.1987-8.4983z"/><path d="m206.55 69.09h0.29985c0.49957 0 0.79993-0.29984 0.89954-0.79993l0.69981-4.5988c0.10011-0.20024 0.10011-0.39996 0.10011-0.6002 0-0.49957-0.19972-0.69981-0.6998-0.79942-0.59969-0.10012-1.2995-0.30035-1.7996-0.30035-3.5992 0-5.8988 1.5998-7.8986 4.1994l-0.0996-2.0994c0-0.90004-0.6002-1.1999-1.5999-1.1999h-4.1988c-1.0002 0-1.5998 0.29985-1.5998 1.5999v28.294c0 1.0998 0.50008 1.5994 1.5998 1.5994h4.7985c1.0998 0 1.5999-0.59969 1.5999-1.5994v-20.796c1.5998-1.9993 3.9991-3.0991 6.2988-3.0991 0.39997 0 1.0998 0 1.5999 0.19973z"/><path d="m237.55 92.68v-20.796c1.9998-1.8001 5.199-3.0996 7.6984-3.0996 3.9991 0 4.9988 2.4994 4.9988 6.0986v17.696c0 1.0998 0.39997 1.6995 1.5999 1.6995h4.6989c1.1999 0 1.5998-0.59969 1.5998-1.6995v-18.996c0-7.0987-2.9995-11.698-10.298-11.698-3.7994 0-7.5983 1.3996-10.598 3.7989l-0.10011-1.6995c-0.10012-0.99965-0.69981-1.1999-1.5999-1.1999h-4.1988c-1.1999 0-1.5998 0.6002-1.5998 1.5999v28.394c0 0.99966 0.6002 1.5994 1.5998 1.5994h4.799c0.89954 0 1.3996-0.59969 1.3996-1.6995z"/><path d="m294.53 64.29c0-1.0998-0.39996-1.5994-1.5998-1.5994h-4.299c-0.99965 0-1.3996 0.29985-1.4997 1.1994l-0.10012 1.7c-0.79993-1.0998-2.0994-2.0999-3.2993-2.5995-1.4997-0.69981-3.0991-1.0002-4.6989-1.0002-9.498 0-14.497 8.1985-14.497 16.997 0 4.799 1.4001 8.9984 4.0992 11.798 2.2997 2.3993 5.4989 3.6993 9.5981 3.6993 2.8994 0 6.4985-1.3996 8.4983-3.2993v2.5995c0 5.199-1.3996 7.0982-7.8986 7.0982-2.2992 0-4.9988-0.69981-7.2984-1.6995-0.29984-0.10012-0.69981-0.29985-0.99965-0.29985-0.50008 0-0.69982 0.50008-0.99967 1.1999l-0.90004 2.8994c-0.0996 0.29986-0.19973 0.49959-0.19973 0.89955 0 0.6002 0.29985 1.0002 0.99966 1.3 3.0996 1.3996 6.4985 1.9993 9.6982 1.9993 10.998 0 15.496-4.299 15.496-14.897v-27.994zm-7.8986 20.596c-1.2995 1.5998-4.1989 3.0996-6.6982 3.0996-1.8001 0-3.4996-0.6002-4.5993-1.7996-1.9993-1.8997-2.5995-4.9993-2.5995-7.7985 0-2.9995 0.79993-6.2988 2.7998-8.2986 1.1994-1.0998 2.7992-1.8992 4.7985-1.8992 2.4999 0 4.9993 1.3996 6.2988 3.1992z"/></g><g fill="#71777a"><path d="m188.56 115.18c-3.7994 0-7.5988 1.3996-10.598 3.7989l-0.0996-1.6995c-0.10012-1.0002-0.6002-1.1999-1.5999-1.1999h-4.1988c-1.1999 0-1.5998 0.59969-1.5998 1.5998v28.394c0 1.0002 0.59969 1.5998 1.5998 1.5998h4.7985c1.1003 0 1.5999-0.50008 1.5999-1.5998v-20.796c1.9998-1.7996 5.199-3.0996 7.6984-3.0996 3.9991 0 4.9993 2.4999 4.9993 6.0991v17.696c0 1.0998 0.39945 1.6995 1.5993 1.6995h4.6989c1.1999 0 1.5998-0.59969 1.5998-1.6995v-19.096c-0.19973-7.0987-3.1992-11.698-10.498-11.698z"/><path d="m231.55 116.08h-4.6989c-1.1994 0-1.6995 0.29985-1.9993 1.3996l-5.0989 15.297c-0.6002 1.7996-1.1999 4.0987-1.5998 5.2986h-0.10012c-0.39996-1.3996-0.99965-3.5992-1.5994-5.4989l-4.9993-15.197c-0.29985-0.79994-0.79993-1.3-1.8997-1.3h-5.6986c-0.79993 0-1.1999 0.29985-1.1999 0.79993 0 0.19973 0.10012 0.39997 0.10012 0.5997l11.197 29.094c0.30035 0.90005 1.0002 1.1999 1.9998 1.1999h3.3994c0.99965 0 1.4997-0.29984 1.8997-1.1999l11.397-28.794c0.10012-0.29984 0.10012-0.49957 0.10012-0.69981 0.10012-0.69981-0.29985-0.99966-1.1999-0.99966z"/><path d="m251.24 115.18c-9.6982 0-16.197 6.7984-16.197 16.596 0 10.198 6.0986 16.697 16.296 16.697 3.3994 0 7.7985-0.69981 10.998-2.0994 0.79943-0.30035 0.99967-0.70031 0.99967-1.0998 0-0.20023-0.10012-0.50009-0.10012-0.79994l-0.89955-3.2993c-0.10012-0.50008-0.50008-0.79993-0.90004-0.79993-0.29985 0-0.50008 0.10012-0.69981 0.19973-2.3998 0.90004-5.2991 1.5998-7.9982 1.5998-5.0989 0-8.7982-3.4996-9.2983-8.4983h18.996c1.5998 0 2.0994-0.29984 2.0994-1.8997v-0.99966c0-4.3991-0.79942-8.4983-3.899-11.698-2.1995-2.3998-5.3987-3.899-9.3979-3.899zm5.5985 13.297h-13.397c0.50008-3.899 3.0996-7.1983 7.2984-7.1983 3.9991 0 5.8988 3.0991 6.0986 6.4985z"/><path d="m288.04 129.98-5.8983-2.3993c-2.4999-1.0002-3.1997-1.8997-3.1997-3.2993 0-1.4997 1.3996-2.9995 4.0992-2.9995 2.0994 0 4.8992 0.69981 6.9986 1.5999 0.19973 0.0996 0.50008 0.0996 0.69981 0.0996 0.50009 0 0.79993-0.29985 0.90005-0.69981l1.0998-3.499c0.0996-0.29985 0.0996-0.50009 0.0996-0.69981 0-0.39997-0.29984-0.70032-0.79941-0.90005-3.2998-1.3996-6.2988-1.9998-9.4985-1.9998-5.7987 0-11.797 2.8999-11.797 9.2982 0 4.3991 2.999 7.2984 6.6982 8.6981l5.199 1.9998c2.6996 0.99965 3.899 1.9998 3.899 3.899 0 2.1996-1.9993 3.4996-4.7986 3.4996-2.2997 0-5.3992-0.90005-8.1985-1.9998-0.29985-0.0996-0.50008-0.0996-0.69981-0.0996-0.39996 0-0.69981 0.29985-0.90004 0.89954l-0.99966 3.2993c-0.10012 0.20024-0.10012 0.39998-0.10012 0.5997 0 0.39997 0.20024 0.79993 0.79993 1.0002 2.8994 1.2995 6.6988 2.2992 9.9981 2.2992 6.6988 0 12.598-3.2993 12.598-10.098 0-4.3991-2.6996-7.0987-6.1992-8.4983z"/><path d="m363.12 115.18c-3.9991 0-8.1985 1.3996-11.198 4.1989-1.4997-2.4994-4.299-4.1989-8.2981-4.1989-3.3994 0-6.8985 1.3996-9.5981 3.6988l-0.10012-1.5994c-0.0996-0.90005-0.69981-1.1999-1.5993-1.1999h-4.1994c-0.99966 0-1.5994 0.50008-1.5994 1.4997v28.494c0 1.1999 0.49957 1.5998 1.6995 1.5998h4.5988c1.0998 0 1.5998-0.50008 1.5998-1.5998v-20.796c2.0994-1.7996 4.6989-3.2993 7.1983-3.2993 3.9996 0 4.6994 2.6996 4.6994 6.1987v17.896c0 1.1999 0.49957 1.5998 1.6995 1.5998h4.299c1.0998 0 1.5998-0.50008 1.5998-1.5998v-10.898c0-0.90005-0.10012-9.6982-0.29984-10.198 1.9993-1.5998 4.8987-2.8994 7.3986-2.8994 3.9991 0 4.8987 2.6991 4.8987 6.1987v17.796c0 1.1999 0.50008 1.5998 1.7 1.5998h4.5988c1.0998 0 1.5999-0.50008 1.5999-1.5998v-16.497c0-4.1988-0.30036-6.9986-1.5999-9.498-1.3996-2.4994-4.3991-4.8987-9.098-4.8987z"/><path d="m396.21 115.18c-9.6982 0-16.197 6.7984-16.197 16.596 0 10.198 6.0986 16.697 16.296 16.697 3.3994 0 7.7985-0.69981 10.998-2.0994 0.79992-0.30035 1.0002-0.70031 1.0002-1.0998 0-0.20023-0.10012-0.50009-0.10012-0.79994l-0.90004-3.2993c-0.0996-0.50008-0.49958-0.79993-0.89954-0.79993-0.29984 0-0.50008 0.10012-0.69981 0.19973-2.3998 0.90004-5.2991 1.5998-7.9982 1.5998-5.0994 0-8.7982-3.4996-9.2982-8.4983h18.996c1.5998 0 2.1995-0.29984 2.1995-1.8997v-0.99966c0-4.3991-0.89954-8.4983-3.7994-11.698-2.3993-2.3998-5.6986-3.899-9.5976-3.899zm5.5985 13.297h-13.397c0.50008-3.899 3.0991-7.1983 7.2984-7.1983 3.9991 0 5.8988 3.0991 6.0986 6.4985z"/><path d="m434.41 115.18c-3.7994 0-7.5988 1.3996-10.598 3.7989l-0.0996-1.6995c-0.10012-1.0002-0.69981-1.1999-1.5999-1.1999h-4.1994c-1.1994 0-1.5993 0.59969-1.5993 1.5998v28.394c0 1.0002 0.59969 1.5998 1.5993 1.5998h4.7991c1.0998 0 1.5998-0.50008 1.5998-1.5998v-20.796c1.9998-1.7996 5.199-3.0996 7.6984-3.0996 3.9991 0 4.9988 2.4999 4.9988 6.0991v17.696c0 1.0998 0.39996 1.6995 1.5998 1.6995h4.6989c1.1999 0 1.5998-0.59969 1.5998-1.6995v-19.096c-0.20023-7.0987-3.1992-11.698-10.498-11.698z"/><path d="m493.89 129.98-5.8983-2.3993c-2.4999-1.0002-3.1997-1.8997-3.1997-3.2993 0-1.4997 1.3996-2.9995 4.0992-2.9995 2.0994 0 4.8992 0.69981 6.9986 1.5999 0.19972 0.0996 0.50008 0.0996 0.6998 0.0996 0.50009 0 0.79993-0.29985 0.90005-0.69981l1.0998-3.499c0.0996-0.29985 0.0996-0.50009 0.0996-0.69981 0-0.39997-0.29985-0.70032-0.79942-0.90005-3.2993-1.3996-6.2988-1.9998-9.4985-1.9998-5.7987 0-11.797 2.8999-11.797 9.2982 0 4.3991 2.999 7.2984 6.6982 8.6981l5.199 1.9998c2.6996 0.99965 3.8995 1.9998 3.8995 3.899 0 2.1996-1.9998 3.4996-4.799 3.4996-2.2997 0-5.2991-0.90005-8.1985-1.9998-0.29985-0.0996-0.50009-0.0996-0.69981-0.0996-0.39997 0-0.69981 0.29985-0.90005 0.89954l-1.0998 3.2993c-0.0996 0.20024-0.0996 0.39998-0.0996 0.5997 0 0.39997 0.19973 0.79993 0.79942 1.0002 2.8994 1.2995 6.5986 2.2992 9.9981 2.2992 6.5986 0 12.598-3.2993 12.598-10.098 0.10012-4.3991-2.5995-7.0987-6.0991-8.4983z"/></g><path d="m180.16 90.68c2.6996-3.1992 4.1994-7.6984 4.1994-12.697 0-4.5993-1.3-9.098-4.0992-12.198-2.1996-2.2997-5.0989-3.9991-9.498-3.9991-3.499 0-7.1983 1.5998-9.098 3.7994l-0.10011-1.7996c-0.10012-1.0002-0.69981-1.1999-1.7996-1.1999h-3.899c-1.0002 0-1.5999 0.39996-1.5999 1.4997v38.992c0 1.0002-0.10011 1.4001 0.50009 1.9998l5.7987 5.4989c0.19973 0.29985 0.59969 0.39996 0.99966 0.29985 0.29984-0.10012 0.59969-0.39997 0.59969-0.79993v-17.996c1.8997 1.9998 4.8992 3.0996 7.8986 3.0996 4.299-0.10012 7.6984-1.7996 10.098-4.4992zm-6.2983-4.299c-1.0998 1.3996-2.8999 2.3993-5.199 2.3993-2.4994 0-5.0989-1.3996-6.3989-3.1992v-14.197c1.3-1.5998 4.299-3.1992 6.6988-3.1992 2.2997 0 4.0992 0.89954 5.2986 2.6991 1.3 1.7996 1.8997 4.4992 1.8997 7.5988 0.10011 3.0991-0.69981 5.8983-2.2992 7.8981z" fill="#e40520"/><path d="m314.43 94.48 34.493-34.493c1.9998-1.9998 1.9998-5.199 0-7.0987l-34.992-35.093c-0.10012-0.10012-4.0992 20.996-4.0992 20.996l15.497 24.595z" fill="#e40520"/></svg>
